<?xml version="1.0" encoding="utf-8"?>
<!-- Generator: Adobe Illustrator 18.1.1, SVG Export Plug-In . SVG Version: 6.00 Build 0)  -->
<!DOCTYPE svg PUBLIC "-//W3C//DTD SVG 1.1//EN" "http://www.w3.org/Graphics/SVG/1.1/DTD/svg11.dtd">
<svg version="1.1" xmlns="http://www.w3.org/2000/svg" xmlns:xlink="http://www.w3.org/1999/xlink" x="0px" y="0px"
	 viewBox="0 0 53 53" enable-background="new 0 0 53 53" xml:space="preserve">
<g id="bgDibújalo">
</g>
<g id="imgDibújalo">
	<g>
		<path fill="#226A97" d="M53,26.5C53,41.1,41.1,53,26.5,53C11.9,53,0,41.1,0,26.5S11.9,0,26.5,0C41.1,0,53,11.9,53,26.5"/>
		<g>
			<g>
				<path fill="#FFFFFF" d="M11.3,35.1c0.1,0,0.2,0,0.3,0c0.1,0,0.2,0.1,0.3,0.1c0.1,0,0.2,0.1,0.2,0.2c0.1,0.1,0.1,0.1,0.1,0.2
					c0,0.1,0.1,0.2,0.1,0.3c0,0.1,0,0.2,0,0.4c0,0,0,0,0,0c0,0,0,0,0,0c0,0,0,0,0,0s0,0,0,0c0,0.2,0,0.3-0.1,0.5
					c0,0.1-0.1,0.3-0.2,0.4c-0.1,0.1-0.2,0.2-0.3,0.3c-0.1,0.1-0.2,0.1-0.3,0.2c-0.1,0-0.2,0.1-0.4,0.1c-0.1,0-0.2,0-0.4,0
					c-0.1,0-0.2,0-0.2,0c-0.1,0-0.1,0-0.2,0v2.4c0,0-0.1,0-0.1,0c0,0-0.1,0-0.1,0c0,0-0.1,0-0.1,0c0,0-0.1,0-0.2,0v-5.1H11.3z
					 M10.9,37.5c0.1,0,0.2,0,0.3,0c0.1,0,0.2-0.1,0.2-0.1c0.1-0.1,0.1-0.1,0.2-0.2c0-0.1,0.1-0.2,0.1-0.3c0-0.1,0.1-0.2,0.1-0.3
					c0-0.1,0-0.2,0-0.3c0-0.1,0-0.3,0-0.4c0-0.1-0.1-0.2-0.1-0.3c-0.1-0.1-0.1-0.2-0.2-0.2c-0.1,0-0.2-0.1-0.3-0.1c0,0,0,0-0.1,0
					c0,0,0,0,0,0h-0.6v2.1H10.9z"/>
				<path fill="#FFFFFF" d="M13.1,35.1h1.4c0.1,0,0.2,0,0.3,0c0.1,0,0.2,0.1,0.3,0.1c0.1,0,0.1,0.1,0.2,0.2c0.1,0.1,0.1,0.2,0.1,0.2
					c0,0.1,0.1,0.2,0.1,0.3c0,0.1,0,0.2,0,0.3c0,0.1,0,0.3,0,0.4c0,0.1-0.1,0.2-0.1,0.3c-0.1,0.1-0.1,0.2-0.2,0.3
					c-0.1,0.1-0.2,0.1-0.2,0.2c-0.1,0-0.2,0.1-0.2,0.1c-0.1,0-0.2,0.1-0.2,0.1l1.5,2.5c-0.1,0-0.1,0-0.2,0c-0.1,0-0.1,0-0.2,0
					c0,0-0.1,0-0.1,0c0,0-0.1,0-0.1,0c0,0-0.1,0-0.1,0c0,0-0.1,0-0.1,0l-1.4-2.4h-0.2v2.4c0,0,0,0-0.1,0c0,0,0,0-0.1,0
					c0,0,0,0-0.1,0c0,0,0,0-0.1,0c0,0-0.1,0-0.1,0c0,0-0.1,0-0.1,0V35.1z M13.7,37.5c0,0,0.1,0,0.1,0c0.2,0,0.3,0,0.5-0.1
					c0.1,0,0.2-0.1,0.3-0.2c0.1-0.1,0.2-0.2,0.2-0.2c0.1-0.1,0.1-0.2,0.1-0.2c0-0.1,0-0.2,0.1-0.2c0-0.1,0-0.2,0-0.2
					c0-0.1,0-0.1,0-0.2c0-0.1,0-0.1-0.1-0.2c0-0.1-0.1-0.1-0.1-0.2c0-0.1-0.1-0.1-0.2-0.2c-0.1-0.1-0.1-0.1-0.2-0.1
					c-0.1,0-0.2,0-0.3,0h-0.5L13.7,37.5C13.6,37.5,13.6,37.5,13.7,37.5z"/>
				<path fill="#FFFFFF" d="M16.2,37.1c0-0.2,0.1-0.3,0.1-0.5c0-0.2,0.1-0.3,0.2-0.5c0.1-0.1,0.1-0.3,0.2-0.4
					c0.1-0.1,0.2-0.2,0.3-0.3c0.1-0.1,0.2-0.2,0.4-0.3c0.1-0.1,0.3-0.1,0.4-0.2c0.2,0,0.3-0.1,0.5-0.1c0.2,0,0.4,0,0.6,0.1
					c0.2,0,0.3,0.1,0.5,0.2c0.1,0.1,0.3,0.2,0.4,0.3c0.1,0.1,0.2,0.2,0.3,0.3c0.1,0.1,0.1,0.3,0.2,0.4c0.1,0.1,0.1,0.3,0.1,0.4
					c0,0.1,0.1,0.3,0.1,0.4c0,0.2,0,0.3,0,0.5v0.1c0,0.2,0,0.4,0,0.6c0,0.2-0.1,0.3-0.1,0.5c-0.1,0.2-0.1,0.3-0.2,0.5
					c-0.1,0.1-0.2,0.3-0.3,0.4c-0.1,0.1-0.2,0.2-0.3,0.3c-0.1,0.1-0.2,0.2-0.4,0.2c-0.1,0-0.2,0.1-0.4,0.1c-0.1,0-0.3,0-0.4,0h0
					c0,0,0,0,0,0c0,0,0,0,0,0c0,0,0,0,0,0c0,0,0,0,0,0c-0.1,0-0.2,0-0.3,0c-0.1,0-0.2-0.1-0.4-0.1c-0.1,0-0.2-0.1-0.3-0.2
					c-0.1-0.1-0.2-0.2-0.3-0.3c-0.1-0.1-0.2-0.2-0.3-0.4c-0.1-0.1-0.2-0.3-0.2-0.5c-0.1-0.2-0.1-0.4-0.1-0.6c0-0.2,0-0.4,0-0.7
					C16.2,37.5,16.2,37.3,16.2,37.1z M16.9,38.6c0.1,0.3,0.2,0.5,0.3,0.8c0.1,0.2,0.3,0.4,0.5,0.5c0.2,0.1,0.4,0.2,0.6,0.2
					c0.1,0,0.2,0,0.3,0c0.1,0,0.2-0.1,0.3-0.1c0.1-0.1,0.2-0.1,0.3-0.2c0.1-0.1,0.2-0.2,0.2-0.3c0.1-0.1,0.1-0.2,0.2-0.3
					c0.1-0.1,0.1-0.3,0.1-0.4c0-0.1,0.1-0.3,0.1-0.5c0-0.2,0-0.3,0.1-0.5c0,0,0,0,0-0.1c0,0,0,0,0-0.1c0-0.2,0-0.3,0-0.5
					c0-0.1,0-0.3-0.1-0.4c0-0.1-0.1-0.3-0.1-0.4c-0.1-0.1-0.1-0.2-0.2-0.3c-0.1-0.1-0.1-0.2-0.2-0.3c-0.1-0.1-0.2-0.1-0.3-0.2
					c-0.1-0.1-0.2-0.1-0.3-0.1c-0.1,0-0.2,0-0.3,0c-0.1,0-0.2,0-0.4,0.1c-0.1,0-0.2,0.1-0.3,0.2c-0.1,0.1-0.2,0.2-0.3,0.3
					c-0.1,0.1-0.1,0.2-0.2,0.3c-0.1,0.1-0.1,0.2-0.2,0.4c0,0.1-0.1,0.3-0.1,0.4c0,0.1-0.1,0.3-0.1,0.4c0,0.1,0,0.3,0,0.4
					C16.8,38,16.8,38.3,16.9,38.6z"/>
				<path fill="#FFFFFF" d="M22.4,35.1c0.1,0,0.2,0,0.3,0c0.1,0,0.2,0.1,0.3,0.1c0.1,0,0.2,0.1,0.2,0.2c0.1,0.1,0.1,0.1,0.1,0.2
					c0,0.1,0.1,0.2,0.1,0.3c0,0.1,0,0.2,0,0.4c0,0,0,0,0,0c0,0,0,0,0,0c0,0,0,0,0,0s0,0,0,0c0,0.2,0,0.3-0.1,0.5
					c0,0.1-0.1,0.3-0.2,0.4c-0.1,0.1-0.2,0.2-0.3,0.3c-0.1,0.1-0.2,0.1-0.3,0.2c-0.1,0-0.2,0.1-0.4,0.1c-0.1,0-0.2,0-0.4,0
					c-0.1,0-0.2,0-0.2,0c-0.1,0-0.1,0-0.2,0v2.4c0,0-0.1,0-0.1,0c0,0-0.1,0-0.1,0c0,0-0.1,0-0.1,0c0,0-0.1,0-0.2,0v-5.1H22.4z
					 M22,37.5c0.1,0,0.2,0,0.3,0c0.1,0,0.2-0.1,0.2-0.1c0.1-0.1,0.1-0.1,0.2-0.2c0-0.1,0.1-0.2,0.1-0.3c0-0.1,0.1-0.2,0.1-0.3
					c0-0.1,0-0.2,0-0.3c0-0.1,0-0.3,0-0.4c0-0.1-0.1-0.2-0.1-0.3c-0.1-0.1-0.1-0.2-0.2-0.2c-0.1,0-0.2-0.1-0.3-0.1c0,0,0,0-0.1,0
					c0,0,0,0,0,0h-0.6v2.1H22z"/>
				<path fill="#FFFFFF" d="M24.3,35.1c0,0,0.1,0,0.1,0c0,0,0.1,0,0.1,0c0,0,0.1,0,0.1,0v5.1c0,0-0.1,0-0.1,0c0,0-0.1,0-0.1,0
					c0,0-0.1,0-0.1,0c0,0-0.1,0-0.1,0v-5.1C24.2,35.1,24.2,35.1,24.3,35.1z"/>
				<path fill="#FFFFFF" d="M25.6,35.1h2c0,0,0,0.1,0,0.1c0,0,0,0.1,0,0.1c0,0,0,0.1,0,0.1c0,0,0,0.1,0,0.1c-0.1,0-0.2,0-0.3-0.1
					c-0.1,0-0.3,0-0.4,0c0,0-0.1,0-0.2,0c-0.1,0-0.1,0-0.2,0c-0.1,0-0.2,0-0.2,0c-0.1,0-0.1,0-0.2,0v1.8H27l0.5-0.1c0,0,0,0.1,0,0.1
					c0,0,0,0.1,0,0.1c0,0,0,0.1,0,0.1c0,0,0,0.1,0,0.1l-0.6-0.1h-0.7v2.1c0,0,0.1,0,0.2,0c0.1,0,0.1,0,0.2,0c0.1,0,0.2,0,0.3,0
					c0.1,0,0.2,0,0.3,0c0.1,0,0.2,0,0.3,0c0.1,0,0.2,0,0.2,0c0,0,0,0.1,0,0.1c0,0,0,0.1,0,0.1c0,0,0,0.1,0,0.1c0,0,0,0.1,0,0.1h-2
					V35.1z"/>
				<path fill="#FFFFFF" d="M30.3,35.1c0.2,0,0.4,0,0.5,0.1c0.2,0.1,0.3,0.1,0.4,0.2c0.1,0.1,0.2,0.2,0.3,0.4
					c0.1,0.1,0.2,0.3,0.2,0.5c0.1,0.2,0.1,0.4,0.1,0.6c0,0.2,0,0.4,0,0.6c0,0.1,0,0.3,0,0.4c0,0.1,0,0.3-0.1,0.4
					c0,0.1-0.1,0.3-0.1,0.4c0,0.1-0.1,0.3-0.2,0.4c-0.1,0.1-0.2,0.3-0.2,0.4c-0.1,0.1-0.2,0.2-0.3,0.3c-0.1,0.1-0.3,0.2-0.4,0.2
					c-0.1,0.1-0.3,0.1-0.5,0.1h-1.6v-5.1H30.3z M29,39.8c0.1,0,0.2,0,0.3,0c0.1,0,0.2,0,0.2,0c0.2,0,0.3,0,0.5,0
					c0.1,0,0.3-0.1,0.4-0.1c0.1,0,0.2-0.1,0.3-0.2c0.1-0.1,0.2-0.1,0.2-0.2c0.1-0.1,0.1-0.2,0.2-0.3c0.1-0.1,0.1-0.2,0.1-0.4
					c0-0.1,0.1-0.3,0.1-0.5c0-0.2,0-0.4,0.1-0.6c0,0,0,0,0-0.1c0,0,0,0,0-0.1c0,0,0,0,0-0.1c0,0,0,0,0,0c0-0.4,0-0.7-0.1-0.9
					c-0.1-0.3-0.2-0.4-0.4-0.6c-0.2-0.1-0.3-0.2-0.5-0.3c-0.2-0.1-0.4-0.1-0.7-0.1c-0.1,0-0.2,0-0.3,0c-0.1,0-0.2,0-0.4,0.1V39.8z"
					/>
				<path fill="#FFFFFF" d="M34,35h0.1l1.7,5.2c0,0,0,0,0,0c0,0,0,0-0.1,0c0,0,0,0,0,0c0,0,0,0,0,0c0,0,0,0,0,0c0,0,0,0,0,0
					c0,0-0.1,0-0.1,0c0,0,0,0-0.1,0c0,0-0.1,0-0.1,0c0,0-0.1,0-0.1,0l-0.6-2h-1.3l-0.6,2c0,0,0,0-0.1,0c0,0,0,0-0.1,0c0,0,0,0,0,0
					c0,0,0,0-0.1,0c0,0,0,0,0,0c0,0,0,0,0,0c0,0,0,0,0,0c0,0,0,0,0,0c0,0,0,0,0,0s0,0,0,0L34,35z M34.6,37.8L34,36l-0.6,1.8H34.6z"
					/>
				<path fill="#FFFFFF" d="M38.3,35.1c0.2,0,0.4,0,0.5,0.1c0.2,0.1,0.3,0.1,0.4,0.2c0.1,0.1,0.2,0.2,0.3,0.4
					c0.1,0.1,0.2,0.3,0.2,0.5c0.1,0.2,0.1,0.4,0.1,0.6c0,0.2,0,0.4,0,0.6c0,0.1,0,0.3,0,0.4c0,0.1,0,0.3-0.1,0.4
					c0,0.1-0.1,0.3-0.1,0.4c0,0.1-0.1,0.3-0.2,0.4c-0.1,0.1-0.2,0.3-0.2,0.4c-0.1,0.1-0.2,0.2-0.3,0.3c-0.1,0.1-0.3,0.2-0.4,0.2
					c-0.1,0.1-0.3,0.1-0.5,0.1h-1.6v-5.1H38.3z M37,39.8c0.1,0,0.2,0,0.3,0c0.1,0,0.2,0,0.2,0c0.2,0,0.3,0,0.5,0
					c0.1,0,0.3-0.1,0.4-0.1c0.1,0,0.2-0.1,0.3-0.2c0.1-0.1,0.2-0.1,0.2-0.2c0.1-0.1,0.1-0.2,0.2-0.3c0.1-0.1,0.1-0.2,0.1-0.4
					c0-0.1,0.1-0.3,0.1-0.5c0-0.2,0-0.4,0.1-0.6c0,0,0,0,0-0.1c0,0,0,0,0-0.1c0,0,0,0,0-0.1c0,0,0,0,0,0c0-0.4,0-0.7-0.1-0.9
					c-0.1-0.3-0.2-0.4-0.4-0.6c-0.2-0.1-0.3-0.2-0.5-0.3c-0.2-0.1-0.4-0.1-0.7-0.1c-0.1,0-0.2,0-0.3,0c-0.1,0-0.2,0-0.4,0.1V39.8z"
					/>
				<path fill="#FFFFFF" d="M40.7,35.1h2c0,0,0,0.1,0,0.1c0,0,0,0.1,0,0.1c0,0,0,0.1,0,0.1c0,0,0,0.1,0,0.1c-0.1,0-0.2,0-0.3-0.1
					c-0.1,0-0.3,0-0.4,0c0,0-0.1,0-0.2,0c-0.1,0-0.1,0-0.2,0c-0.1,0-0.2,0-0.2,0c-0.1,0-0.1,0-0.2,0v1.8h0.8l0.5-0.1
					c0,0,0,0.1,0,0.1c0,0,0,0.1,0,0.1c0,0,0,0.1,0,0.1c0,0,0,0.1,0,0.1l-0.6-0.1h-0.7v2.1c0,0,0.1,0,0.2,0c0.1,0,0.1,0,0.2,0
					c0.1,0,0.2,0,0.3,0c0.1,0,0.2,0,0.3,0c0.1,0,0.2,0,0.3,0c0.1,0,0.2,0,0.2,0c0,0,0,0.1,0,0.1c0,0,0,0.1,0,0.1c0,0,0,0.1,0,0.1
					c0,0,0,0.1,0,0.1h-2V35.1z"/>
				<path fill="#FFFFFF" d="M43.5,35.7c0.1-0.2,0.2-0.3,0.3-0.4c0.1-0.1,0.2-0.2,0.4-0.2c0.1-0.1,0.3-0.1,0.4-0.1c0.1,0,0.2,0,0.3,0
					c0.1,0,0.2,0,0.2,0.1c0.1,0,0.2,0.1,0.2,0.1c0.1,0.1,0.1,0.1,0.1,0.2c0,0-0.1,0.1-0.1,0.2c0,0.1-0.1,0.2-0.1,0.4h-0.1
					c0,0,0-0.1,0-0.1c0,0,0-0.1-0.1-0.1c0,0-0.1-0.1-0.1-0.1c0,0-0.1-0.1-0.1-0.1c0,0-0.1-0.1-0.2-0.1c-0.1,0-0.1,0-0.2,0
					c0,0-0.1,0-0.2,0c-0.1,0-0.1,0.1-0.2,0.1c0,0-0.1,0.1-0.1,0.1c0,0.1-0.1,0.1-0.1,0.2c0,0.1-0.1,0.1-0.1,0.2c0,0.1,0,0.1,0,0.2
					c0,0.2,0,0.3,0.1,0.5c0.1,0.1,0.2,0.3,0.4,0.4l0.6,0.3c0.1,0.1,0.2,0.1,0.3,0.2c0.1,0.1,0.1,0.2,0.2,0.3
					c0.1,0.1,0.1,0.2,0.1,0.3c0,0.1,0,0.2,0,0.4c0,0.1,0,0.3,0,0.4c0,0.1-0.1,0.3-0.1,0.4c-0.1,0.1-0.1,0.3-0.2,0.4
					C45.1,39.9,45,40,44.9,40c-0.1,0.1-0.2,0.1-0.3,0.2c-0.1,0-0.2,0.1-0.4,0.1c-0.1,0-0.2,0-0.3,0c-0.1,0-0.2-0.1-0.3-0.1
					c-0.1,0-0.2-0.1-0.2-0.1c-0.1-0.1-0.1-0.1-0.2-0.2c0-0.1,0-0.1,0-0.2c0-0.1,0-0.1,0-0.2c0,0,0,0,0-0.1c0,0,0-0.1,0-0.1
					c0,0,0-0.1,0-0.1s0-0.1,0-0.1h0.1c0.1,0.1,0.1,0.2,0.2,0.3c0.1,0.1,0.1,0.2,0.2,0.2c0.1,0.1,0.1,0.1,0.1,0.1
					c0,0,0.1,0.1,0.1,0.1c0,0,0.1,0,0.1,0c0,0,0.1,0,0.1,0c0.1,0,0.1,0,0.2,0c0.1,0,0.1-0.1,0.2-0.1c0.1,0,0.1-0.1,0.1-0.2
					c0-0.1,0.1-0.1,0.1-0.2c0-0.1,0-0.2,0.1-0.2c0-0.1,0-0.2,0-0.2c0-0.1,0-0.2,0-0.3c0-0.1-0.1-0.2-0.1-0.3c0-0.1-0.1-0.2-0.1-0.2
					c-0.1-0.1-0.1-0.1-0.2-0.1L44,37.6c-0.1-0.1-0.2-0.1-0.3-0.2c-0.1-0.1-0.1-0.1-0.2-0.2c0-0.1-0.1-0.1-0.1-0.2
					c0-0.1,0-0.1-0.1-0.2c0-0.1,0-0.2,0-0.2c0-0.1,0-0.2,0-0.3C43.4,36,43.4,35.8,43.5,35.7z"/>
			</g>
		</g>
		<g>
			<g>
				<path fill="#FFFFFF" d="M13.5,13.8c0.7,0,1.9-0.1,2.5-0.1c2.1,0,4.3,0.9,4.3,4.1c0,2.7-1.1,4-2.7,4.7c1.1,2.8,2.8,6.5,3.9,9
					l-0.1,0.1c-0.2,0-1.2-0.1-1.7-0.1c-0.6,0-1.4,0.1-2.1,0.1c-0.7-2.1-2.4-6.5-3.1-8.4c-0.3-0.1-0.6-0.1-1.1-0.1v1.1
					c0,1.9,0.1,5.2,0.2,7.3c-0.7,0-1.3-0.1-1.9-0.1c-0.6,0-1.2,0-1.9,0.1c0.1-2.1,0.2-5.6,0.2-7.9v-2.6c0-2.4-0.1-5.3-0.2-7.4
					C11.2,13.7,12.8,13.8,13.5,13.8z M15.1,22.2c0.9-0.3,1.7-1.5,1.7-4.1c0-2.5-0.9-3.4-2.4-3.4c-0.3,0-0.6,0-0.9,0.1
					c-0.1,1.9-0.1,3.8-0.1,5.6v2C14,22.4,14.7,22.3,15.1,22.2z"/>
				<path fill="#FFFFFF" d="M28.9,29.9c-1,1.2-2.4,2.1-4.2,2.1c-2.9,0-4.7-1.8-4.7-5.1c0-3.1,2-4.4,3.8-5.1
					c-0.7-1.2-1.3-2.5-1.3-3.9c0-3,2-4.2,4.3-4.2c2,0,3.3,1,3.3,3.4c0,2.9-1.9,3.7-3,4.2c0.9,1.3,2.4,3.7,3.4,5.1
					c0.7-0.9,1.6-3.3,1.9-4.8h0.2c0.3,0.3,0.8,0.9,1,1.1C33,24,31.8,26.1,31,27.3c0.9,1.4,2.2,3.2,3,4.1l-0.1,0.2
					c-1.3,0-2.9,0-4,0.1C29.7,31.2,29.3,30.5,28.9,29.9z M25.8,30c1,0,2-0.4,2.4-1c-1.2-1.8-3.1-4.7-4.1-6.3
					c-0.7,0.4-1.3,1.3-1.3,3.1C22.9,28.1,24.1,30,25.8,30z M26.7,14.7c-1.2,0-1.5,1.3-1.5,2.3c0,1.3,0.7,2.7,1.3,3.7
					c1.1-0.6,1.7-1.8,1.7-3.6C28.2,16.1,27.8,14.7,26.7,14.7z"/>
				<path fill="#FFFFFF" d="M45.3,31.6L45.3,31.6c-0.7,0.1-1.4,0-2,0c-0.5,0-1.1,0-1.9,0.1c-0.3-1.5-0.9-4.2-1.4-5.8
					c-0.7,0-1.6,0-2.3,0c-0.9,0-1.9,0-2.5,0c-0.5,1.6-1.2,4.2-1.6,5.8c-0.2,0-0.6-0.1-0.9-0.1c-0.4,0-0.6,0-0.9,0.1L32,31.6
					c1.1-2.9,3.5-10.5,5.8-17.9h2.8C42,19.8,44.1,27.5,45.3,31.6z M38,17c-0.6,1.8-1.7,5.3-2.3,7.5c0.6,0,1.4,0,2.1,0
					c0.6,0,1.5,0,2,0C39.4,22.4,38.5,19,38,17z"/>
			</g>
		</g>
	</g>
</g>
<g id="textDibújalo">
</g>
</svg>
